<?xml version="1.0" encoding="UTF-8"?>
<svg id="Laag_1" xmlns="http://www.w3.org/2000/svg" viewBox="0 0 28.35 28.35">
    <path class="cls-1"
          d="m23.02,19.74c0-3.16-5.02-4.64-8.13-4.84,2.35-.34,4.17-2.36,4.17-4.8,0-2.69-2.19-4.88-4.88-4.88s-4.88,2.19-4.88,4.88c0,2.45,1.82,4.46,4.17,4.8-3.11.2-8.13,1.67-8.13,4.84v2.9h17.67v-2.9Zm-11.87-9.64c0-1.68,1.36-3.04,3.04-3.04s3.04,1.36,3.04,3.04-1.36,3.04-3.04,3.04-3.04-1.36-3.04-3.04Zm10.03,10.7H7.19v-1.06c0-1.68,4.23-3.04,7-3.04s7,1.36,7,3.04v1.06Z"/>
</svg>