<?xml version="1.0" encoding="UTF-8"?>
<svg id="Laag_1" xmlns="http://www.w3.org/2000/svg" viewBox="0 0 28.35 28.35">
    <path class="cls-1"
          d="m22.28,6.05l-1.02.06c-.42.02-10.39.6-13.93,4.14-2.95,2.96-2.96,7.77-.02,10.74l1.3-1.29c-2.23-2.25-2.23-5.9.02-8.14,2.24-2.25,8.45-3.23,11.68-3.53-.29,3.23-1.28,9.44-3.53,11.68-1.55,1.55-3.84,2.07-5.89,1.39.71-2.98,2.35-5.67,4.69-7.64l-1.19-1.4c-2.85,2.41-4.79,5.76-5.46,9.44l-.13.69.64.3c1.04.49,2.15.73,3.26.73,1.98,0,3.93-.77,5.38-2.22,3.53-3.53,4.11-13.51,4.14-13.93l.06-1.02Z"/>
</svg>