<?xml version="1.0" encoding="UTF-8"?>
<svg id="Laag_1" xmlns="http://www.w3.org/2000/svg" viewBox="0 0 28.35 28.35">
    <path class="cls-2"
          d="m14.15,16.62c1.41,0,2.55-1.14,2.55-2.55s-1.14-2.55-2.55-2.55-2.55,1.14-2.55,2.55,1.14,2.55,2.55,2.55Z"/>
    <path class="cls-2" d="m10.33,8.43l.78-.48,1.5.03.11-.53-.17,1.5s-.92.32-2.02,1.28l-2.85-1.34,1.41-1.03,1.23.57Z"/>
    <g>
        <polygon class="cls-1" points="5.9 16.43 5.9 16.43 5.89 16.42 5.9 16.43"/>
        <polygon class="cls-2" points="8.89 12.93 8.16 12.4 8.89 12.95 8.89 12.93"/>
    </g>
    <path class="cls-2"
          d="m21.01,13.58l2.44-1.75-2.81-4.64-2.68,1.24c-.24-.17-.5-.33-.78-.48l-.33-2.99h-5.41l-.33,2.99c-.29.15-.54.31-.78.48l-2.68-1.24-2.81,4.64,2.44,1.75.02.97-2.4,1.77,2.62,4.65,2.79-1.15c.27.18.53.34.8.46l.32,2.94h5.41l.32-2.94c.27-.12.54-.28.8-.46l2.79,1.15,2.62-4.65-2.4-1.77.02-.97Zm-15.12,2.85h0s0,0,0,0h0Zm16.51,0h0s0,0,0,0h0Zm-1.04.33l-1.27,2.25-2.35-.97-.36.29c-.41.33-.77.53-1.17.66l-.47.16-.28,2.51h-2.64l-.28-2.51-.47-.16c-.41-.13-.77-.34-1.17-.66l-.36-.29-2.35.97-1.27-2.25,2.03-1.43s0-.04,0-.06c-.25-1.34-.08-2.25-.07-2.32l-.73-.55-1.27-.96,1.37-2.27,2.28,1.05.37-.3c.37-.29.75-.53,1.27-.79l.38-.19.27-2.44h2.64l.27,2.44.38.19c.52.26.91.5,1.27.79l.37.3,2.28-1.05,1.37,2.27-1.27.96-.73.55c.02.08.19.99-.07,2.32,0,.02,0,.04,0,.06l2.03,1.43Z"/>
</svg>