<?xml version="1.0" encoding="UTF-8"?>
<svg id="Laag_2" xmlns="http://www.w3.org/2000/svg" viewBox="0 0 28.35 28.35">
    <path d="m14.5,19.89l1.88-.23v-5.38h-1.26v-2.36l-4.01-.48-3.98.48v2.36h-1.28v5.38s1.88.23,1.88.23l-1.29,4.04-.04.13,1.52.02h.08s1.28-4.01,1.28-4.01l1.86.23,1.84-.23,1.28,4.03h7.72s0-1.46,0-1.46h-6.59s-.88-2.76-.88-2.76Zm-3.39-1.22l-3.79-.45v-2.62h1.27v-2.38l2.52-.34,2.52.34v2.38h1.26v2.62l-3.78.45Z"
          fill="#1d1d1b" stroke-width="0"/>
    <rect x="17.49" y="10.06" width="1.47" height="11.92" fill="#1d1d1b" stroke-width="0"/>
    <path d="m23.54,9.28l-2.65-6.9-.03-.06h-5.27l-2.63,6.83-.05.14h10.63Zm-8.27-1.55l1.47-3.92,1.46-.03,1.5.03,1.48,3.92h-5.92Z"
          fill="#1d1d1b" stroke-width="0"/>
</svg>