<?xml version="1.0" encoding="UTF-8"?><svg id="Laag_1" xmlns="http://www.w3.org/2000/svg" viewBox="0 0 80.17 43.21"><path d="m27.86,10.35c-.83,0-1.5.4-1.68,1.34h3.29c-.09-.85-.74-1.34-1.6-1.34Z" fill="#fff" stroke-width="0"/><path d="m12.18,10.35c-.83,0-1.5.4-1.68,1.34h3.29c-.09-.85-.74-1.34-1.6-1.34Z" fill="#fff" stroke-width="0"/><path d="m27.18,21.85c-.83,0-1.5.4-1.68,1.34h3.29c-.09-.85-.74-1.34-1.6-1.34Z" fill="#fff" stroke-width="0"/><path d="m19.61,21.85c-.83,0-1.5.4-1.68,1.34h3.29c-.09-.85-.74-1.34-1.6-1.34Z" fill="#fff" stroke-width="0"/><path d="m19.79,14.01c.94,0,1.79-.72,1.79-1.8s-.9-1.78-1.79-1.78c-.95,0-1.74.74-1.74,1.78s.78,1.8,1.74,1.8Z" fill="#fff" stroke-width="0"/><path d="m-.22-.22v43.21h80.17V-.22H-.22Zm56.34,6.23c.56,0,.99.4.99.94s-.44.94-.99.94-1.01-.41-1.01-.94.46-.94,1.01-.94Zm.77,3.13v6.19h-1.54v-6.19h1.54Zm-24.48,0h1.54v1.33c.33-1.03,1.01-1.46,1.78-1.46.37,0,.77.08,1.01.21l-.3,1.46c-.36-.19-.68-.23-.9-.23-1.01,0-1.56.98-1.56,2.72v2.16h-1.55v-6.19ZM7,27.1h-1.54v-6.19h1.54v6.19Zm-.77-7.43c-.54,0-1.01-.41-1.01-.94s.46-.94,1.01-.94.99.4.99.94-.44.94-.99.94Zm1.1-4.35h-1.62V6.19h1.62v9.13Zm3.56,11.91c-1.23,0-2.46-.74-2.49-2.07h1.44c0,.42.37.82,1.02.82.61,0,1.01-.28,1.01-.68,0-.34-.26-.5-.73-.61l-.82-.21c-1.39-.37-1.75-1.11-1.75-1.89,0-.97.95-1.82,2.31-1.82,1.1,0,2.35.54,2.33,1.93h-1.47c0-.44-.38-.7-.82-.7-.48,0-.81.27-.81.65,0,.32.3.5.66.58l.99.27c1.39.36,1.64,1.23,1.64,1.8,0,1.26-1.26,1.92-2.52,1.92Zm4.39-14.47h-4.78c.17.86.83,1.3,1.75,1.3.68,0,1.31-.26,1.68-.77l1.02.78c-.57.9-1.66,1.38-2.78,1.38-1.85,0-3.26-1.3-3.26-3.23s1.48-3.22,3.25-3.22,3.17,1.23,3.17,3.17c0,.17-.01.37-.04.6Zm4.25-3.76c.78,0,1.64.31,2.07.95v-4.13h1.54v9.5h-1.54v-.83c-.42.66-1.3.97-2.05.97-1.63,0-3.05-1.26-3.05-3.23s1.4-3.22,3.03-3.22Zm3.17,15.26h-4.78c.17.86.83,1.3,1.75,1.3.68,0,1.31-.27,1.68-.77l1.02.78c-.57.9-1.66,1.38-2.78,1.38-1.85,0-3.26-1.3-3.26-3.23s1.48-3.22,3.25-3.22,3.17,1.23,3.17,3.17c0,.17-.01.37-.04.6Zm7.58,0h-4.78c.17.86.83,1.3,1.75,1.3.68,0,1.31-.27,1.68-.77l1.02.78c-.57.9-1.66,1.38-2.78,1.38-1.85,0-3.26-1.3-3.26-3.23s1.48-3.22,3.25-3.22,3.17,1.23,3.17,3.17c0,.17-.01.37-.04.6Zm.67-11.5h-4.78c.17.86.83,1.3,1.75,1.3.68,0,1.31-.26,1.68-.77l1.02.78c-.57.9-1.66,1.38-2.78,1.38-1.85,0-3.26-1.3-3.26-3.23s1.48-3.22,3.25-3.22,3.17,1.23,3.17,3.17c0,.17-.01.37-.04.6Zm6.71,14.05h-1.54v-3.33c0-.98-.6-1.48-1.29-1.48s-1.58.38-1.58,1.58v3.23h-1.54v-6.19h1.54v.98c.32-.77,1.29-1.11,1.92-1.11,1.59,0,2.48,1.05,2.48,2.85v3.47Zm3.71-11.5h-1.54V5.82h1.54v4.25c.3-.74,1.3-1.07,1.92-1.07,1.59,0,2.48,1.05,2.48,2.85v3.47h-1.54v-3.33c0-.98-.6-1.48-1.29-1.48s-1.58.38-1.58,1.58v3.23Zm3.6,6.54h-1.31v4.96h-1.54v-4.96h-1.11v-1.23h1.11v-2.28h1.54v2.28h1.31v1.23Zm7.12,4.96h-1.54v-3.33c0-.98-.6-1.48-1.29-1.48s-1.58.38-1.58,1.58v3.23h-1.54v-9.5h1.54v4.25c.3-.74,1.3-1.07,1.92-1.07,1.59,0,2.48,1.05,2.48,2.85v3.47Zm1.29-11.5h-1.54v-.97c-.32.77-1.3,1.11-1.92,1.11-1.59,0-2.48-1.06-2.48-2.86v-3.47h1.54v3.33c0,.99.6,1.5,1.29,1.5s1.58-.38,1.58-1.59v-3.23h1.54v6.19Zm6.03,11.5h-1.54v-.97c-.32.77-1.3,1.11-1.92,1.11-1.59,0-2.48-1.06-2.48-2.86v-3.47h1.54v3.33c0,.99.6,1.5,1.29,1.5s1.58-.38,1.58-1.59v-3.23h1.54v6.19Zm-1.12-13.43h1.44c0,.42.37.82,1.02.82.61,0,1.01-.28,1.01-.68,0-.34-.26-.5-.73-.61l-.82-.21c-1.39-.37-1.75-1.11-1.75-1.9,0-.97.95-1.82,2.31-1.82,1.1,0,2.35.54,2.33,1.94h-1.47c0-.44-.38-.7-.82-.7-.48,0-.81.27-.81.65,0,.32.3.5.66.58l.99.27c1.39.36,1.64,1.23,1.64,1.8,0,1.26-1.26,1.92-2.52,1.92s-2.46-.74-2.49-2.07Zm4.49,13.43h-1.54v-6.19h1.54v6.19Zm-.77-7.43c-.54,0-1.01-.41-1.01-.94s.46-.94,1.01-.94.99.4.99.94-.44.94-.99.94Zm4.66,7.57c-1.23,0-2.46-.74-2.49-2.07h1.44c0,.42.37.82,1.02.82.61,0,1.01-.28,1.01-.68,0-.34-.26-.5-.73-.61l-.82-.21c-1.39-.37-1.75-1.11-1.75-1.89,0-.97.95-1.82,2.31-1.82,1.1,0,2.35.54,2.33,1.93h-1.47c0-.44-.38-.7-.82-.7-.48,0-.81.27-.81.65,0,.32.3.5.66.58l.99.27c1.39.36,1.64,1.23,1.64,1.8,0,1.26-1.26,1.92-2.52,1.92Z" fill="#fff" stroke-width="0"/><path d="m5.52,33.2c.25-.26.57-.39.94-.39s.69.13.94.39c.26.26.39.58.39.95s-.13.69-.39.95c-.25.26-.57.39-.94.39s-.68-.13-.94-.39c-.25-.26-.38-.58-.38-.95s.13-.69.38-.95Zm.02.95c0,.26.09.49.27.67.18.18.4.27.65.27s.47-.09.65-.27c.18-.19.27-.41.27-.67s-.09-.49-.27-.67c-.18-.19-.4-.28-.65-.28s-.48.09-.65.28c-.18.19-.27.41-.27.67Z" fill="#252525" stroke-width="0"/><path d="m8.82,35.46h-.39v-1.77h.39v.27c.09-.19.33-.3.54-.3.43,0,.68.28.68.78v1.03h-.39v-.99c0-.28-.14-.44-.37-.44-.26,0-.46.15-.46.48v.95Z" fill="#252525" stroke-width="0"/><path d="m12.15,35.46v-.26c-.11.19-.35.3-.6.3s-.46-.08-.63-.25c-.17-.17-.26-.4-.26-.67s.08-.5.25-.67c.17-.17.38-.26.63-.26s.49.11.6.29v-1.22h.39v2.74h-.39Zm-.17-1.28c-.11-.1-.24-.15-.38-.15-.3,0-.53.22-.53.54,0,.16.05.3.15.4.1.1.23.15.38.15.3,0,.54-.22.54-.55,0-.16-.05-.3-.16-.39Z" fill="#252525" stroke-width="0"/><path d="m14.98,34.71h-1.41c.03.27.25.44.54.44.2,0,.39-.09.48-.25l.32.14c-.15.3-.47.46-.82.46-.26,0-.47-.09-.65-.26s-.26-.4-.26-.67.09-.5.26-.66c.17-.17.39-.25.65-.25s.47.08.64.25c.17.17.25.39.25.66,0,.07,0,.12,0,.14Zm-.38-.29c-.03-.27-.24-.44-.51-.44s-.49.17-.52.44h1.03Z" fill="#252525" stroke-width="0"/><path d="m16,35.46h-.39v-1.77h.39v.41c.09-.3.25-.44.49-.44.14,0,.25.02.32.07l-.06.36c-.08-.04-.17-.06-.26-.06-.32,0-.47.31-.47.81v.64Z" fill="#252525" stroke-width="0"/><path d="m17.72,35.46h-.39v-1.77h.39v.27c.09-.19.33-.3.54-.3.43,0,.68.28.68.78v1.03h-.39v-.99c0-.28-.14-.44-.37-.44-.26,0-.46.15-.46.48v.95Z" fill="#252525" stroke-width="0"/><path d="m21.36,34.71h-1.41c.03.27.25.44.54.44.2,0,.39-.09.48-.25l.32.14c-.15.3-.47.46-.82.46-.26,0-.47-.09-.65-.26s-.26-.4-.26-.67.09-.5.26-.66c.17-.17.39-.25.65-.25s.47.08.64.25c.17.17.25.39.25.66,0,.07,0,.12,0,.14Zm-.38-.29c-.03-.27-.24-.44-.51-.44s-.49.17-.52.44h1.03Z" fill="#252525" stroke-width="0"/><path d="m23.58,34.51v.95h-.39v-1c0-.27-.15-.43-.36-.43-.25,0-.45.15-.45.48v.95h-.39v-1.77h.39v.27c.05-.11.13-.19.24-.23.11-.05.22-.07.32-.07.27,0,.46.12.56.35.13-.24.33-.35.6-.35.44,0,.68.29.68.79v1.02h-.39v-.99c0-.27-.15-.44-.38-.44-.26,0-.43.19-.43.48Z" fill="#252525" stroke-width="0"/><path d="m25.97,32.97c0,.14-.11.25-.26.25-.14,0-.26-.11-.26-.25s.12-.25.26-.25c.15,0,.26.11.26.25Zm-.45,2.49v-1.77h.39v1.77h-.39Z" fill="#252525" stroke-width="0"/><path d="m27.05,35.46h-.39v-1.77h.39v.27c.09-.19.33-.3.54-.3.43,0,.68.28.68.78v1.03h-.39v-.99c0-.28-.14-.44-.37-.44-.26,0-.46.15-.46.48v.95Z" fill="#252525" stroke-width="0"/><path d="m29.31,35.68c.09.18.3.3.5.3.4,0,.59-.23.59-.7v-.09c-.1.19-.35.31-.6.31s-.46-.08-.63-.25c-.17-.17-.26-.39-.26-.66s.09-.5.26-.67c.17-.17.39-.26.63-.26s.49.11.6.3v-.26h.38v1.51c0,.76-.33,1.15-.98,1.15-.35,0-.65-.18-.82-.5l.16-.08.16-.08Zm.54-1.66c-.15,0-.28.05-.38.16-.1.1-.16.23-.16.39s.05.29.16.4c.1.1.23.15.38.15.14,0,.27-.05.38-.15.11-.1.17-.24.17-.4,0-.34-.24-.55-.55-.55Z" fill="#252525" stroke-width="0"/><path d="m31.95,34.69c-.37-.1-.52-.28-.49-.58.01-.13.08-.24.2-.33.13-.09.27-.14.43-.14.35,0,.63.17.65.52h-.37c-.02-.13-.12-.19-.26-.19-.1,0-.22.04-.25.1-.03.05-.03.1-.02.16.02.06.09.1.22.14l.27.07c.31.08.46.25.46.52,0,.33-.29.54-.71.54-.18,0-.33-.05-.47-.16-.14-.11-.21-.25-.21-.43h.36c.02.16.15.25.35.25.18,0,.31-.08.31-.21,0-.1-.08-.17-.25-.21l-.24-.06Z" fill="#252525" stroke-width="0"/><path d="m33.82,33.69v.26c.11-.19.35-.3.59-.3s.45.09.62.26c.17.17.26.4.26.67s-.09.5-.26.67c-.17.17-.38.25-.62.25s-.49-.11-.59-.29v1.12h-.39v-2.64h.39Zm.16,1.29c.11.09.24.14.38.14.3,0,.53-.22.53-.54,0-.16-.05-.3-.16-.4-.1-.1-.23-.16-.38-.16s-.28.05-.38.15c-.1.1-.16.24-.16.4s.05.3.16.4Z" fill="#252525" stroke-width="0"/><path d="m35.94,35.46v-2.74h.39v2.74h-.39Z" fill="#252525" stroke-width="0"/><path d="m38.47,35.46v-.25c-.11.18-.36.29-.6.29-.25,0-.46-.09-.64-.26-.17-.17-.26-.4-.26-.67s.09-.49.26-.67c.18-.17.39-.26.64-.26.23,0,.48.1.6.29v-.25h.39v1.77h-.39Zm-.17-1.28c-.11-.1-.24-.15-.38-.15-.15,0-.28.05-.39.15-.1.1-.16.23-.16.39s.05.29.16.4c.11.1.24.16.39.16.3,0,.55-.22.55-.55,0-.16-.06-.3-.17-.39Z" fill="#252525" stroke-width="0"/><path d="m40.01,35.46h-.39v-1.77h.39v.27c.09-.19.33-.3.54-.3.43,0,.68.28.68.78v1.03h-.39v-.99c0-.28-.14-.44-.37-.44-.26,0-.46.15-.46.48v.95Z" fill="#252525" stroke-width="0"/><path d="m43.47,35.22h1.11v.24h-1.52v-.1l.99-1.19c.15-.18.25-.38.25-.53,0-.29-.21-.48-.51-.48-.28,0-.49.15-.53.39l-.22-.05c.06-.35.35-.57.75-.57.44,0,.75.28.75.71,0,.21-.12.45-.28.64l-.79.95Z" fill="#252525" stroke-width="0"/><path d="m45.23,34.21c0-.71.19-1.28.89-1.28s.89.57.89,1.28-.18,1.29-.89,1.29-.89-.58-.89-1.29Zm1.54,0c0-.58-.13-1.05-.65-1.05s-.65.48-.65,1.05.13,1.06.65,1.06.65-.49.65-1.06Z" fill="#252525" stroke-width="0"/><path d="m48.06,35.22h1.11v.24h-1.52v-.1l.99-1.19c.15-.18.25-.38.25-.53,0-.29-.21-.48-.51-.48-.28,0-.49.15-.53.39l-.22-.05c.06-.35.35-.57.75-.57.44,0,.75.28.75.71,0,.21-.12.45-.28.64l-.79.95Z" fill="#252525" stroke-width="0"/><path d="m51.55,34.7v.23h-.37v.53h-.24v-.53h-1.31v-.06l1.5-1.92h.05v1.74h.37Zm-1.52,0h.9v-1.16l-.9,1.16Z" fill="#252525" stroke-width="0"/><path d="m53.15,34.4v-.24h1.28v.24h-1.28Z" fill="#252525" stroke-width="0"/><path d="m56.29,35.22h1.11v.24h-1.52v-.1l.99-1.19c.15-.18.25-.38.25-.53,0-.29-.21-.48-.51-.48-.28,0-.49.15-.53.39l-.22-.05c.06-.35.35-.57.75-.57.44,0,.75.28.75.71,0,.21-.12.45-.28.64l-.79.95Z" fill="#252525" stroke-width="0"/><path d="m58.05,34.21c0-.71.19-1.28.89-1.28s.89.57.89,1.28-.18,1.29-.89,1.29-.89-.58-.89-1.29Zm1.54,0c0-.58-.13-1.05-.65-1.05s-.65.48-.65,1.05.13,1.06.65,1.06.65-.49.65-1.06Z" fill="#252525" stroke-width="0"/><path d="m60.88,35.22h1.11v.24h-1.52v-.1l.99-1.19c.15-.18.25-.38.25-.53,0-.29-.21-.48-.51-.48-.28,0-.49.15-.53.39l-.22-.05c.06-.35.35-.57.75-.57.44,0,.75.28.75.71,0,.21-.12.45-.28.64l-.79.95Z" fill="#252525" stroke-width="0"/><path d="m62.59,32.96h1.64v.03l-1.36,2.47h-.28l1.25-2.27h-1.24v-.23Z" fill="#252525" stroke-width="0"/></svg>