<?xml version="1.0" encoding="UTF-8"?>
<svg id="Laag_1" xmlns="http://www.w3.org/2000/svg" viewBox="0 0 141.73 85.04">
    <path fill="#fff" class="cls-1"
          d="m58.49,55.97c0-2.6-2.11-4.73-4.7-4.73s-4.7,2.14-4.7,4.73,2.11,4.73,4.7,4.73,4.7-2.14,4.7-4.73m0-6.99h2.63v13.99h-2.63v-1.62c-1.31,1.1-2.96,1.92-4.7,1.92-1.95,0-3.79-.73-5.19-2.11-1.38-1.4-2.14-3.24-2.14-5.19s.76-3.79,2.14-5.19c1.4-1.38,3.24-2.11,5.19-2.11,1.74,0,3.39.82,4.7,1.92v-1.62Z"/>
    <path fill="#fff" class="cls-1"
          d="m81.96,55.97c0-2.6-2.11-4.73-4.7-4.73s-4.7,2.14-4.7,4.73,2.11,4.73,4.7,4.73,4.7-2.14,4.7-4.73m0-6.99h2.63v13.99h-2.63v-1.62c-1.31,1.1-2.96,1.92-4.7,1.92-1.95,0-3.79-.73-5.19-2.11-1.38-1.4-2.14-3.24-2.14-5.19s.76-3.79,2.14-5.19c1.4-1.38,3.24-2.11,5.19-2.11,1.74,0,3.39.82,4.7,1.92v-1.62Z"/>
    <path fill="#fff" class="cls-1"
          d="m120.21,55.97c0-2.6-2.11-4.74-4.7-4.74s-4.7,2.14-4.7,4.74,2.11,4.73,4.7,4.73,4.7-2.14,4.7-4.73m0-15.42h2.63v22.42h-2.63v-1.62c-1.31,1.1-2.96,1.92-4.7,1.92-1.95,0-3.79-.73-5.19-2.11-1.38-1.41-2.14-3.24-2.14-5.19s.76-3.79,2.14-5.19c1.4-1.37,3.24-2.11,5.19-2.11,1.74,0,3.39.82,4.7,1.93v-10.05Z"/>
    <path fill="#fff" class="cls-1"
          d="m97.11,61.34v-5.56c0-2.53,2-4.43,4.5-4.54l.59-2.56c-.13,0-.25,0-.38,0-1.74,0-3.39.73-4.7,1.83v-1.52h-2.63v13.99h2.63v-1.62Z"/>
    <rect fill="#9374a4" class="cls-2" x="24.16" y="40.58" width="9.39" height="2.4"/>
    <polygon fill="#fff" class="cls-1"
             points="36.2 48.97 36.18 49.06 34.22 59.43 30.29 54.11 28.85 54.11 28.85 54.11 27.42 54.11 23.48 59.43 21.52 49.06 21.5 48.97 18.93 48.97 21.56 62.96 24.16 62.96 28.85 56.62 28.85 56.62 28.85 56.62 33.55 62.96 36.15 62.96 38.78 48.97 36.2 48.97"/>
    <path fill="#fff" class="cls-1"
          d="m107.98,27.47v7.51h-2.63v-7.51c0-2.29-1.83-4.19-4.13-4.19s-4.12,1.89-4.12,4.19v7.51h-2.63v-13.99h2.63v1.35c1.19-.92,2.63-1.62,4.12-1.62,1.8,0,3.51.67,4.8,1.96,1.25,1.28,1.95,2.96,1.95,4.8"/>
    <path fill="#fff" class="cls-1"
          d="m82.03,27.92c0-2.61-2.12-4.71-4.74-4.71s-4.74,2.09-4.74,4.71,2.12,4.74,4.74,4.74,4.74-2.12,4.74-4.74m2.65,0c0,1.97-.77,3.82-2.18,5.23-1.38,1.38-3.23,2.15-5.2,2.15s-3.82-.77-5.23-2.15c-1.38-1.41-2.15-3.26-2.15-5.23s.77-3.81,2.15-5.23c1.41-1.38,3.26-2.12,5.23-2.12s3.81.74,5.2,2.12c1.41,1.42,2.18,3.26,2.18,5.23"/>
    <path fill="#fff" class="cls-1"
          d="m58.56,27.92c0-2.61-2.12-4.71-4.74-4.71s-4.74,2.09-4.74,4.71,2.12,4.74,4.74,4.74,4.74-2.12,4.74-4.74m2.65,0c0,1.97-.77,3.82-2.18,5.23-1.38,1.38-3.23,2.15-5.2,2.15s-3.82-.77-5.23-2.15c-1.38-1.41-2.15-3.26-2.15-5.23s.77-3.81,2.15-5.23c1.41-1.38,3.26-2.12,5.23-2.12s3.81.74,5.2,2.12c1.41,1.42,2.18,3.26,2.18,5.23"/>
    <polygon fill="#fff" class="cls-1"
             points="36.2 21 34.22 31.45 30.29 26.13 28.85 26.13 28.85 26.13 27.42 26.13 23.48 31.45 21.5 21 18.93 21 21.56 34.98 24.16 34.98 28.85 28.64 33.55 34.98 36.15 34.98 38.78 21 36.2 21"/>
</svg>